<?xml version="1.0" encoding="utf-8"?>
<!-- Generator: Adobe Illustrator 22.0.1, SVG Export Plug-In . SVG Version: 6.00 Build 0)  -->
<svg version="1.1" id="Layer_1" xmlns="http://www.w3.org/2000/svg" xmlns:xlink="http://www.w3.org/1999/xlink" x="0px" y="0px"
	 viewBox="0 0 576 280" style="enable-background:new 0 0 576 280;" xml:space="preserve">
<style type="text/css">
	.st0{fill:#FFFFFF;}
</style>
<title>24g_logo</title>
<g id="Layer_2_1_">
	<g id="Layer_1-2">
		<path id="G" class="st0" d="M436,0c-65.6,0-122.4,45.5-136.6,109.5c18.6-23,46.5-36.4,76.1-36.3c26.1,0,47.6,9.5,66.1,25.3
			l-19,20.1c-12.8-11.2-29.7-18.5-46.3-18.5c-38.6,0-68.3,32.7-68.3,70.8c0,37.8,29.7,70.5,68.3,70.5c14.1,0,28.1-3.2,40.8-9.3
			v-30.5h-31.9v-25.9h59.6c0,23.4,0.3,47.5,0.3,71c-0.2,1.7-0.9,3.2-2.2,4.4c0,0-25.3,16.2-61.6,17.9c71.2,30,153.4-3.4,183.4-74.6
			c30-71.2-3.4-153.4-74.6-183.4C473,3.8,454.6,0,436,0"/>
		<path id="_4" class="st0" d="M236.1,202v-80l-65.6,80H236.1z M141.1,203.1L240.9,77h20.2v125.6h22v21.5h-22v41.2H235v-40.7h-93.9
			L141.1,203.1z"/>
		<path id="_2" class="st0" d="M0,265c20.1-22.9,61-69.7,81.1-93.6c13.6-15.2,20.7-28.9,20.7-39.7c0-13.9-9.5-29.7-33.5-29.7
			c-15,0-27.2,10.3-34.6,18.2l-16.9-16.3c0,0,20.4-26.7,52.8-26.7c38.9,0,59.6,24.8,59.6,53.3c0,21-11.4,35.4-26.1,53.1
			c-14.3,17.2-33.1,39.3-49,57.4c-0.1,0.1-0.1,0.4,0,0.5c0.1,0.1,0.2,0.1,0.3,0.1h73.4c0.2,0,0.3,0.2,0.3,0.4l0,0v22.7l-0.3,0.4
			C127.8,265-0.1,265.1,0,265"/>
	</g>
</g>
</svg>
